HIERARCHY
ROOT Hips
{
	OFFSET -211.153198 91.653587 -35.738949
	CHANNELS 6 Xposition Yposition Zposition Zrotation Yrotation Xrotation 
	JOINT LeftUpLeg
	{
		OFFSET 0.103455 1.857827 10.548507
		CHANNELS 3 Zrotation Yrotation Xrotation
		JOINT LeftLeg
		{
			OFFSET 43.500000 -0.000031 0.000008
			CHANNELS 3 Zrotation Yrotation Xrotation
			JOINT LeftFoot
			{
				OFFSET 42.372192 0.000011 -0.000014
				CHANNELS 3 Zrotation Yrotation Xrotation
				JOINT LeftToe
				{
					OFFSET 17.299997 -0.000002 0.000013
					CHANNELS 3 Zrotation Yrotation Xrotation
					End Site
					{
						OFFSET 0.000000 0.000000 0.000000
					}
				}
			}
		}
	}
	JOINT RightUpLeg
	{
		OFFSET 0.103457 1.857826 -10.548499
		CHANNELS 3 Zrotation Yrotation Xrotation
		JOINT RightLeg
		{
			OFFSET 43.500046 -0.000019 0.000015
			CHANNELS 3 Zrotation Yrotation Xrotation
			JOINT RightFoot
			{
				OFFSET 42.372261 -0.000004 0.000013
				CHANNELS 3 Zrotation Yrotation Xrotation
				JOINT RightToe
				{
					OFFSET 17.299992 -0.000006 0.000004
					CHANNELS 3 Zrotation Yrotation Xrotation
					End Site
					{
						OFFSET 0.000000 0.000000 0.000000
					}
				}
			}
		}
	}
	JOINT Spine
	{
		OFFSET 6.901968 -2.603730 -0.000002
		CHANNELS 3 Zrotation Yrotation Xrotation
		JOINT Spine1
		{
			OFFSET 12.588100 -0.000001 0.000009
			CHANNELS 3 Zrotation Yrotation Xrotation
			JOINT Spine2
			{
				OFFSET 12.343201 0.000005 -0.000005
				CHANNELS 3 Zrotation Yrotation Xrotation
				JOINT Neck
				{
					OFFSET 25.832893 -0.000008 -0.000006
					CHANNELS 3 Zrotation Yrotation Xrotation
					JOINT Head
					{
						OFFSET 11.766606 0.000005 0.000008
						CHANNELS 3 Zrotation Yrotation Xrotation
						End Site
						{
							OFFSET 0.000000 0.000000 0.000000
						}
					}
				}
				JOINT LeftShoulder
				{
					OFFSET 19.745903 -1.480373 6.000100
					CHANNELS 3 Zrotation Yrotation Xrotation
					JOINT LeftArm
					{
						OFFSET 11.284123 -0.000007 -0.000024
						CHANNELS 3 Zrotation Yrotation Xrotation
						JOINT LeftForeArm
						{
							OFFSET 33.000053 0.000004 0.000036
							CHANNELS 3 Zrotation Yrotation Xrotation
							JOINT LeftHand
							{
								OFFSET 25.200006 0.000021 -0.000003
								CHANNELS 3 Zrotation Yrotation Xrotation
								End Site
								{
									OFFSET 0.000000 0.000000 0.000000
								}
							}
						}
					}
				}
				JOINT RightShoulder
				{
					OFFSET 19.746101 -1.480381 -6.000079
					CHANNELS 3 Zrotation Yrotation Xrotation
					JOINT RightArm
					{
						OFFSET 11.284133 -0.000015 -0.000008
						CHANNELS 3 Zrotation Yrotation Xrotation
						JOINT RightForeArm
						{
							OFFSET 33.000099 0.000016 0.000006
							CHANNELS 3 Zrotation Yrotation Xrotation
							JOINT RightHand
							{
								OFFSET 25.199781 0.000142 0.000425
								CHANNELS 3 Zrotation Yrotation Xrotation
								End Site
								{
									OFFSET 0.000000 0.000000 0.000000
								}
							}
						}
					}
				}
			}
		}
	}
}
MOTION
Frames: 8
Frame Time: 0.033333
64.239906 44.276279 -67.145332 72.584974 7.408841 138.750594 107.687235 -30.588196 149.680659 -140.880711 5.695735 -13.019390 104.362893 8.676035 9.999840 21.454553 0.003091 0.000000 171.789380 28.971695 -178.487637 -55.675737 -8.020094 26.389932 85.531672 -18.467518 -4.779793 21.454548 -0.003111 -0.000018 14.372755 -4.624178 0.638305 18.773437 -9.290208 0.516050 18.450750 -9.286785 0.572654 -28.965528 -12.268952 6.017202 -11.929185 23.485232 -7.094208 89.457781 -78.099627 89.849506 -20.267343 10.860699 -35.645490 -34.929372 -20.818130 1.709201 3.866682 -18.315999 36.498782 102.843586 72.854103 -76.996572 -60.548869 -29.896773 25.005358 -81.126555 11.999758 -2.793950 -12.924721 18.378417 -38.854153 
67.780937 41.203751 -69.100807 68.545743 8.058253 139.692600 105.245415 -29.829106 142.366182 -145.319310 6.269405 -17.274868 101.945197 11.825942 11.380370 21.454551 0.003091 0.000000 171.202803 28.286411 -176.612914 -55.968377 -7.468205 25.856337 83.719193 -18.210312 -4.452940 21.454553 -0.003116 -0.000017 14.974819 -4.682980 1.909630 19.880049 -9.623692 2.992824 19.557524 -9.605316 3.051377 -34.441717 -15.671388 4.610683 -10.435642 25.732733 -11.135701 86.614127 -77.227214 92.744454 -25.653776 5.629176 -36.982076 -29.597778 -19.099227 1.483986 8.185374 -15.828501 31.894446 83.833325 69.721451 -96.174227 -67.244189 -12.971995 26.068187 -65.223443 19.014659 -2.611348 -12.755963 21.646326 -37.814331 
71.335663 38.680210 -70.911324 61.962479 6.670769 143.261005 99.896981 -25.604294 136.855681 -148.361490 6.346058 -19.734298 99.794774 13.845698 12.674041 21.454541 0.003092 -0.000001 169.659044 26.942303 -172.834576 -55.155021 -7.215788 26.470200 81.287652 -18.486817 -2.731826 21.454563 -0.003111 -0.000016 14.865920 -4.681274 2.729408 19.590600 -9.756259 4.639298 19.268613 -9.727959 4.698516 -35.759882 -16.198291 1.581791 -10.126539 25.714863 -14.387242 85.004607 -76.253796 94.421157 -33.310645 0.205710 -34.566460 -24.085339 -14.417180 1.090993 -1.813969 -30.267085 33.099927 76.901496 71.116599 -102.864076 -70.096258 0.387463 25.271939 -50.394027 20.430605 -2.156237 -8.704458 23.139904 -30.919372 
75.429832 36.463291 -72.360603 53.769783 5.069979 148.429791 96.041025 -20.425705 132.378902 -149.927392 6.050637 -20.251665 99.288677 14.439061 14.536292 21.454567 0.003092 0.000001 168.163765 24.552701 -169.789091 -53.453655 -6.132297 27.225383 78.832650 -19.230975 -2.918349 21.454555 -0.003102 -0.000011 14.263415 -4.414097 3.098021 18.350814 -9.263073 5.470696 18.029780 -9.229782 5.526775 -25.740179 -20.849339 -2.016589 -17.913479 26.694456 -20.779413 103.936587 -82.883294 74.964857 -46.585913 10.666629 -40.154375 -52.899597 -26.452643 2.627324 -18.540467 -30.792153 58.069080 73.999902 73.133697 -105.555991 -70.054983 5.949800 24.316641 -45.383076 20.696571 -2.012971 -2.394986 19.725617 -24.669646 
79.679863 35.635792 -73.342567 46.935673 3.353322 155.358090 91.368240 -11.465194 133.375399 -150.861298 5.612877 -17.277203 96.685760 12.701063 12.908051 21.454553 0.003091 -0.000001 167.815986 22.350204 -168.105326 -51.869208 -5.026858 26.933022 76.651716 -19.170558 -2.626447 21.454563 -0.003100 -0.000010 14.033600 -4.306006 3.812793 17.831940 -9.147707 6.934445 17.511990 -9.105629 6.989635 -12.114579 -20.255341 -8.970350 -19.614133 26.717846 -25.475588 156.569601 -82.514805 22.076520 -53.766320 10.409943 -37.195841 -71.119877 -17.274371 2.697589 -27.479774 -27.423071 70.507052 73.865142 75.915353 -105.479315 -62.870184 2.220617 21.341006 -52.805480 24.614055 -2.525487 -21.780418 40.085192 -51.521719 
84.489037 36.166439 -73.546402 40.323231 0.973080 166.263497 88.251460 0.637801 141.117364 -148.838305 4.602785 -8.850207 95.212509 7.061936 11.107996 21.454563 0.003094 0.000004 167.955349 21.274905 -165.501330 -52.040605 -4.289879 25.654585 74.710119 -16.874122 3.603592 21.454560 -0.003110 -0.000016 13.989256 -4.333902 2.890649 17.818357 -9.060760 5.091664 17.497312 -9.029752 5.146539 0.226223 -15.912222 -13.018190 -28.398002 26.121715 -29.108562 159.645495 -85.482085 18.832392 -58.195254 13.774699 -37.526039 -80.606484 -12.510681 2.768389 -32.809763 -25.307273 74.802278 104.122559 83.221497 -74.788557 -54.332854 -13.424521 44.281636 -83.672754 11.667274 -2.883092 -22.062177 22.583582 -61.792756 
88.573967 37.414661 -73.820297 36.002491 3.045900 171.636507 89.523549 7.332395 151.734237 -145.708494 4.230576 -1.164205 96.829174 1.387028 8.180771 21.454539 0.003092 -0.000004 165.763869 16.482194 -168.538101 -55.151510 -2.742746 24.585858 74.271402 -15.667252 5.600947 21.454563 -0.003102 -0.000018 14.699694 -3.395250 2.442836 19.289071 -7.149886 4.291757 18.969259 -7.123724 4.334973 3.852610 -22.732560 -14.076770 -31.407816 28.045050 -32.727893 161.397452 -84.346361 17.119902 -58.713939 17.959600 -43.540222 -89.862388 -6.980015 2.787371 -39.054390 -22.601685 78.004059 121.142284 82.805955 -57.767937 -48.533934 -16.740903 54.013710 -95.550979 2.651966 -2.780661 -24.178127 20.988456 -64.763478 
92.250366 39.306129 -74.646446 32.071437 4.794986 173.141689 91.369005 9.797302 159.391398 -140.766510 3.908473 3.720765 97.914450 -2.137508 6.496166 21.454538 0.003091 -0.000005 160.506987 14.418700 -169.033617 -59.902651 -2.194062 20.393722 75.360742 -12.706875 5.745620 21.454553 -0.003106 -0.000017 15.358281 -3.182827 2.282824 20.621801 -6.721126 3.967009 20.302170 -6.696929 4.007631 0.027285 -23.383412 -12.858123 -30.007951 29.730850 -32.723563 160.992258 -84.909340 17.503123 -60.100399 20.743356 -49.170989 -96.890004 -3.591262 2.862491 -42.881150 -20.559762 80.108365 113.995646 82.019842 -65.005390 -44.724905 -21.319303 60.710997 -104.593098 0.306692 -3.020564 -25.445933 21.194482 -65.641021 
